# xmcd
#
# Track frame offsets:
# 150
# 16955
# 29675
# 43065
# 55016
# 72314
# 85981
# 106450
# 122271
# 141737
# 159400
# 175914
# 189449
# 203408
# 216225
# 231181
# 246263
# 259910
# 275079
# 291383
#
# Disc length: 4015 seconds
#
#
# Revision: 0
# Processed by: cddbd v1.5.1PL2 Copyright (c) Steve Scherf et al.
# Submitted via: FreeRIP 2.942 
#
DISCID=310fad14
DTITLE=America Sertanejo - America Sertanejo
DYEAR=2005
DGENRE=Sertanejo
TTITLE0=Fera Mansa
TTITLE1=Na Sola da Bota
TTITLE2=Peão de Vitrine
TTITLE3=Oito Segundos
TTITLE4=Nos Tropica mas não cai
TTITLE5=Eu sou Peão
TTITLE6=Os Amantes
TTITLE7=Amor ou Paixão
TTITLE8=Coração Aventureiro
TTITLE9=Sistema Bruto
TTITLE10=Nervos de Aço
TTITLE11=Se Tiver Mulher
TTITLE12=Apaziguar
TTITLE13=Clube do Batidão
TTITLE14=Galera Coração
TTITLE15=Agita Ai
TTITLE16=Sou Parada Dura
TTITLE17=Tremelê
TTITLE18=Magoa de Boiadeiro
TTITLE19=Ave-Maria Natureza
EXTD=
EXTT0=
EXTT1=
EXTT2=
EXTT3=
EXTT4=
EXTT5=
EXTT6=
EXTT7=
EXTT8=
EXTT9=
EXTT10=
EXTT11=
EXTT12=
EXTT13=
EXTT14=
EXTT15=
EXTT16=
EXTT17=
EXTT18=
EXTT19=
PLAYORDER=
